G04 (created by PCBNEW (2013-07-07 BZR 4022)-stable) date 16-12-2015 04:21:19 PM*
%MOIN*%
G04 Gerber Fmt 3.4, Leading zero omitted, Abs format*
%FSLAX34Y34*%
G01*
G70*
G90*
G04 APERTURE LIST*
%ADD10C,0.00590551*%
%ADD11C,0.2*%
%ADD12C,0.0256*%
%ADD13R,0.0256X0.1811*%
%ADD14R,0.0256X0.1417*%
%ADD15O,0.0256X0.0256*%
%ADD16R,0.055X0.035*%
%ADD17R,0.035X0.055*%
%ADD18R,0.045X0.025*%
%ADD19R,0.025X0.045*%
%ADD20C,0.056*%
%ADD21R,0.045X0.0118*%
%ADD22R,0.0118X0.045*%
%ADD23R,0.01X0.045*%
%ADD24R,0.0157X0.0236*%
%ADD25R,0.12X0.065*%
%ADD26R,0.24X0.24*%
%ADD27R,0.065X0.065*%
%ADD28C,0.065*%
%ADD29R,0.0590551X0.112205*%
%ADD30R,0.05X0.07*%
%ADD31R,0.036X0.02*%
%ADD32R,0.06X0.06*%
%ADD33C,0.06*%
%ADD34R,0.0472X0.0472*%
%ADD35R,0.0709X0.0866*%
%ADD36R,0.0866X0.0709*%
%ADD37C,0.15*%
%ADD38R,0.075X0.098*%
%ADD39R,0.0216535X0.0393701*%
%ADD40R,0.0200787X0.05*%
%ADD41O,0.08X0.16*%
%ADD42R,0.0200787X0.03*%
%ADD43R,0.0394X0.0276*%
%ADD44R,0.055X0.055*%
%ADD45C,0.055*%
%ADD46R,0.02X0.045*%
%ADD47C,0.0590551*%
G04 APERTURE END LIST*
G54D10*
G54D11*
X71724Y-19556D03*
G54D12*
X60176Y-58021D03*
G54D13*
X52696Y-57115D03*
X53090Y-57115D03*
X53483Y-57115D03*
X53877Y-57115D03*
X54271Y-57115D03*
X54664Y-57115D03*
X55058Y-57115D03*
X55452Y-57115D03*
X55845Y-57115D03*
X56239Y-57115D03*
X56633Y-57115D03*
X58601Y-57115D03*
X58995Y-57115D03*
X59389Y-57115D03*
G54D14*
X59782Y-56918D03*
G54D13*
X60176Y-57115D03*
X57814Y-57115D03*
X58208Y-57115D03*
G54D12*
X53483Y-58021D03*
X53877Y-58021D03*
X54271Y-58021D03*
X54664Y-58021D03*
X55058Y-58021D03*
X55452Y-58021D03*
X55845Y-58021D03*
X56239Y-58021D03*
X56633Y-58021D03*
X52696Y-58021D03*
X57814Y-58021D03*
X58208Y-58021D03*
X58601Y-58021D03*
X58995Y-58021D03*
X59389Y-58021D03*
X53090Y-58021D03*
G54D13*
X60570Y-57115D03*
X60963Y-57115D03*
X61357Y-57115D03*
X61751Y-57115D03*
X62144Y-57115D03*
X62538Y-57115D03*
X62932Y-57115D03*
X63326Y-57115D03*
X63719Y-57115D03*
X64113Y-57115D03*
X64507Y-57115D03*
X64900Y-57115D03*
G54D14*
X65294Y-56918D03*
G54D13*
X65688Y-57115D03*
X66081Y-57115D03*
X66475Y-57115D03*
X66869Y-57115D03*
X67263Y-57115D03*
X67656Y-57115D03*
X68050Y-57115D03*
X68444Y-57115D03*
X68837Y-57115D03*
X69231Y-57115D03*
X69625Y-57115D03*
X70018Y-57115D03*
X70412Y-57115D03*
X70806Y-57115D03*
X71200Y-57115D03*
X71593Y-57115D03*
G54D14*
X71987Y-56918D03*
G54D13*
X72381Y-57115D03*
G54D15*
X60570Y-58021D03*
X60963Y-58021D03*
X61357Y-58021D03*
X61751Y-58021D03*
X62144Y-58021D03*
X62538Y-58021D03*
X62932Y-58021D03*
X63326Y-58021D03*
X70412Y-58021D03*
X63719Y-58021D03*
X64113Y-58021D03*
X64507Y-58021D03*
X64900Y-58021D03*
X65688Y-58021D03*
X66081Y-58021D03*
X66475Y-58021D03*
X66869Y-58021D03*
X67263Y-58021D03*
X70806Y-58021D03*
X67656Y-58021D03*
X68050Y-58021D03*
X68444Y-58021D03*
X68837Y-58021D03*
X69231Y-58021D03*
X69625Y-58021D03*
X70018Y-58021D03*
X71200Y-58021D03*
X71593Y-58021D03*
X72381Y-58021D03*
G54D11*
X49715Y-23085D03*
X37656Y-54733D03*
G54D16*
X49375Y-39600D03*
X49375Y-40350D03*
G54D17*
X43900Y-45275D03*
X44650Y-45275D03*
G54D18*
X41775Y-43375D03*
X41775Y-43975D03*
X41775Y-40675D03*
X41775Y-41275D03*
X42575Y-39975D03*
X42575Y-39375D03*
X42575Y-40675D03*
X42575Y-41275D03*
X41775Y-39975D03*
X41775Y-39375D03*
X49962Y-41154D03*
X49962Y-41754D03*
G54D19*
X45675Y-40275D03*
X46275Y-40275D03*
X42275Y-51075D03*
X41675Y-51075D03*
X41675Y-50175D03*
X42275Y-50175D03*
X41675Y-49275D03*
X42275Y-49275D03*
X49175Y-45975D03*
X48575Y-45975D03*
G54D18*
X41775Y-46075D03*
X41775Y-46675D03*
X41775Y-42675D03*
X41775Y-42075D03*
X41775Y-45475D03*
X41775Y-44875D03*
X42575Y-45475D03*
X42575Y-44875D03*
X42575Y-46075D03*
X42575Y-46675D03*
X49375Y-42875D03*
X49375Y-43475D03*
G54D19*
X49175Y-46775D03*
X48575Y-46775D03*
G54D18*
X50891Y-48821D03*
X50891Y-48221D03*
X50175Y-44975D03*
X50175Y-45575D03*
G54D19*
X43975Y-46775D03*
X44575Y-46775D03*
G54D18*
X49375Y-44075D03*
X49375Y-44675D03*
G54D19*
X47575Y-40375D03*
X48175Y-40375D03*
G54D20*
X47475Y-48675D03*
X45475Y-48675D03*
G54D19*
X47575Y-39575D03*
X48175Y-39575D03*
X43975Y-46075D03*
X44575Y-46075D03*
G54D21*
X44850Y-44061D03*
X48300Y-43273D03*
X48300Y-43470D03*
X48300Y-43864D03*
X48300Y-43667D03*
X48300Y-44061D03*
X48300Y-44258D03*
X48300Y-42683D03*
X48300Y-42880D03*
X48300Y-43077D03*
X44850Y-44258D03*
G54D22*
X45492Y-41450D03*
X45689Y-41450D03*
X45886Y-41450D03*
X46083Y-41450D03*
X46280Y-41450D03*
X46477Y-41450D03*
G54D23*
X46673Y-41450D03*
G54D22*
X47461Y-44900D03*
X47264Y-44900D03*
X47067Y-44900D03*
X46870Y-44900D03*
X46673Y-44900D03*
X46477Y-44900D03*
X46280Y-44900D03*
X46083Y-44900D03*
X45886Y-44900D03*
X45689Y-44900D03*
X45492Y-44900D03*
X47658Y-44900D03*
X47658Y-41450D03*
X47461Y-41450D03*
X47264Y-41450D03*
X47067Y-41450D03*
X46870Y-41450D03*
G54D21*
X48300Y-42486D03*
X48300Y-42289D03*
X48300Y-42092D03*
X44850Y-43864D03*
X44850Y-43667D03*
X44850Y-43470D03*
X44850Y-43273D03*
X44850Y-43077D03*
X44850Y-42880D03*
X44850Y-42683D03*
X44850Y-42486D03*
X44850Y-42289D03*
X44850Y-42092D03*
G54D24*
X46652Y-46675D03*
X46298Y-46675D03*
G54D18*
X50675Y-39575D03*
X50675Y-40175D03*
G54D25*
X49575Y-36675D03*
G54D26*
X52075Y-37575D03*
G54D25*
X49575Y-38475D03*
G54D27*
X42950Y-36300D03*
G54D28*
X41450Y-36300D03*
G54D27*
X47150Y-36300D03*
G54D28*
X45650Y-36300D03*
G54D29*
X35247Y-50529D03*
X36231Y-49741D03*
X37688Y-50529D03*
X38436Y-49741D03*
X39893Y-50529D03*
X35247Y-47029D03*
X36231Y-46241D03*
X37688Y-47029D03*
X38436Y-46241D03*
X39893Y-47029D03*
X35247Y-43529D03*
X36231Y-42741D03*
X37688Y-43529D03*
X38436Y-42741D03*
X39893Y-43529D03*
X35247Y-40029D03*
X36231Y-39241D03*
X37688Y-40029D03*
X38436Y-39241D03*
X39893Y-40029D03*
G54D30*
X61100Y-26180D03*
X61100Y-22820D03*
X60100Y-26180D03*
X60100Y-22820D03*
G54D18*
X42650Y-28750D03*
X42650Y-28150D03*
X44250Y-28150D03*
X44250Y-28750D03*
X55300Y-50100D03*
X55300Y-49500D03*
X67800Y-19100D03*
X67800Y-19700D03*
X69400Y-19100D03*
X69400Y-19700D03*
X41850Y-28150D03*
X41850Y-28750D03*
X54400Y-52500D03*
X54400Y-53100D03*
X55300Y-52500D03*
X55300Y-53100D03*
G54D31*
X69964Y-31828D03*
X69336Y-31828D03*
X69964Y-32143D03*
X69336Y-32143D03*
X69964Y-32457D03*
X69336Y-32457D03*
X69964Y-32772D03*
X69336Y-32772D03*
X74286Y-27472D03*
X74914Y-27472D03*
X74286Y-27157D03*
X74914Y-27157D03*
X74286Y-26843D03*
X74914Y-26843D03*
X74286Y-26528D03*
X74914Y-26528D03*
G54D32*
X73200Y-35500D03*
G54D33*
X74200Y-35500D03*
X73200Y-36500D03*
X74200Y-36500D03*
X73200Y-37500D03*
X74200Y-37500D03*
X73200Y-38500D03*
X74200Y-38500D03*
X73200Y-39500D03*
X74200Y-39500D03*
X73200Y-40500D03*
X74200Y-40500D03*
G54D32*
X73200Y-43650D03*
G54D33*
X74200Y-43650D03*
X73200Y-44650D03*
X74200Y-44650D03*
X73200Y-45650D03*
X74200Y-45650D03*
X73200Y-46650D03*
X74200Y-46650D03*
X73200Y-47650D03*
X74200Y-47650D03*
X73200Y-48650D03*
X74200Y-48650D03*
G54D34*
X68013Y-31700D03*
X67187Y-31700D03*
X68013Y-33000D03*
X67187Y-33000D03*
X68013Y-34400D03*
X67187Y-34400D03*
X68013Y-30400D03*
X67187Y-30400D03*
G54D35*
X59698Y-21102D03*
X61705Y-21099D03*
G54D36*
X52802Y-51602D03*
X52799Y-49595D03*
G54D37*
X38193Y-26468D03*
X38193Y-36203D03*
G54D32*
X38800Y-33550D03*
G54D33*
X38800Y-32450D03*
X38800Y-31400D03*
X38800Y-30300D03*
X38800Y-29200D03*
X37800Y-33000D03*
X37800Y-31900D03*
X37800Y-30850D03*
X37800Y-29750D03*
G54D18*
X43450Y-28150D03*
X43450Y-28750D03*
G54D38*
X72500Y-28300D03*
X72500Y-25793D03*
G54D39*
X64025Y-23131D03*
X64775Y-23131D03*
X64025Y-22068D03*
X64400Y-23131D03*
X64775Y-22068D03*
G54D40*
X68450Y-23362D03*
X68950Y-23362D03*
X69450Y-23362D03*
X69950Y-23362D03*
X69950Y-21237D03*
X69450Y-21237D03*
X68950Y-21237D03*
X68450Y-21237D03*
G54D16*
X63100Y-24175D03*
X63100Y-23425D03*
G54D18*
X40200Y-23400D03*
X40200Y-24000D03*
X40200Y-25200D03*
X40200Y-24600D03*
G54D41*
X63730Y-13779D03*
X62350Y-13779D03*
X66530Y-13779D03*
X65150Y-13779D03*
X76880Y-13779D03*
X75500Y-13779D03*
X74080Y-13779D03*
X72700Y-13779D03*
X53380Y-13779D03*
X52000Y-13779D03*
X56180Y-13779D03*
X54800Y-13779D03*
G54D32*
X50700Y-26500D03*
G54D33*
X50700Y-27500D03*
X49700Y-26500D03*
X49700Y-27500D03*
X48700Y-26500D03*
X48700Y-27500D03*
X47700Y-26500D03*
X47700Y-27500D03*
G54D32*
X66400Y-23300D03*
G54D33*
X66400Y-24300D03*
G54D32*
X66400Y-20900D03*
G54D33*
X66400Y-21900D03*
G54D42*
X54525Y-51800D03*
X55274Y-51800D03*
X54525Y-50800D03*
X54900Y-51800D03*
X55274Y-50800D03*
G54D43*
X38300Y-24200D03*
X39300Y-23825D03*
X39300Y-24575D03*
G54D19*
X61100Y-27300D03*
X60500Y-27300D03*
G54D18*
X63220Y-19100D03*
X63220Y-19700D03*
X64100Y-19100D03*
X64100Y-19700D03*
X59600Y-19100D03*
X59600Y-19700D03*
X68600Y-19700D03*
X68600Y-19100D03*
G54D19*
X39100Y-22600D03*
X38500Y-22600D03*
G54D18*
X37500Y-19600D03*
X37500Y-19000D03*
G54D38*
X74600Y-24500D03*
X74600Y-21993D03*
X74600Y-29500D03*
X74600Y-32007D03*
X76700Y-25800D03*
X76700Y-28307D03*
G54D18*
X63100Y-21900D03*
X63100Y-22500D03*
X45400Y-31700D03*
X45400Y-32300D03*
X67700Y-23200D03*
X67700Y-23800D03*
G54D44*
X36400Y-23000D03*
G54D45*
X36400Y-24000D03*
G54D41*
X60930Y-13779D03*
X59550Y-13779D03*
X58170Y-13779D03*
X71280Y-13779D03*
X69900Y-13779D03*
X68520Y-13779D03*
G54D18*
X37500Y-20500D03*
X37500Y-21100D03*
G54D46*
X44550Y-32300D03*
X43550Y-32300D03*
X43050Y-32300D03*
X42550Y-32300D03*
X42050Y-32300D03*
X41550Y-32300D03*
X41050Y-32300D03*
X41050Y-29899D03*
X41550Y-29899D03*
X42050Y-29899D03*
X42550Y-29899D03*
X43050Y-29899D03*
X43550Y-29899D03*
X44050Y-29899D03*
X44550Y-29899D03*
X44050Y-32300D03*
G54D47*
X36400Y-20100D03*
X36400Y-19050D03*
X36400Y-21150D03*
M02*
