M48
;DRILL file {Pcbnew (2013-07-07 BZR 4022)-stable} date 16-12-2015 04:21:21 PM
;FORMAT={-:-/ absolute / inch / decimal}
FMAT,2
INCH,TZ
T1C0.010
T2C0.012
T3C0.030
T4C0.030
T5C0.031
T6C0.032
T7C0.040
T8C0.052
T9C0.120
T10C0.125
T11C0.138
%
G90
G05
M72
T1
X3.749Y-2.1461
X3.7506Y-2.0752
X3.8365Y-5.0675
X3.8865Y-4.0335
X3.8963Y-2.3833
X3.9105Y-4.6235
X3.9418Y-2.26
X3.97Y-2.954
X4.007Y-3.084
X4.007Y-3.266
X4.01Y-3.198
X4.0198Y-2.3653
X4.032Y-3.365
X4.0464Y-2.84
X4.0466Y-2.909
X4.0977Y-2.8418
X4.143Y-4.2075
X4.1431Y-4.3975
X4.1439Y-2.8137
X4.2163Y-4.3019
X4.2175Y-3.9375
X4.2175Y-4.1275
X4.2175Y-4.4875
X4.2175Y-4.6675
X4.2275Y-4.8929
X4.2275Y-4.983
X4.2275Y-5.073
X4.2804Y-2.9373
X4.3096Y-2.7922
X4.3335Y-2.9271
X4.3452Y-2.8461
X4.3592Y-4.1965
X4.4005Y-4.2343
X4.4019Y-4.3294
X4.4046Y-2.9487
X4.4052Y-3.1902
X4.423Y-3.362
X4.425Y-4.435
X4.4263Y-4.1703
X4.4565Y-4.1424
X4.482Y-4.6075
X4.482Y-4.6775
X4.5045Y-4.1622
X4.5221Y-4.2683
X4.5396Y-3.206
X4.5585Y-2.4966
X4.5936Y-3.1383
X4.6085Y-4.4522
X4.6294Y-4.3834
X4.655Y-3.241
X4.6675Y-4.4514
X4.676Y-3.369
X4.6881Y-4.3785
X4.7059Y-4.2853
X4.7394Y-4.2867
X4.7484Y-4.4163
X4.782Y-4.0375
X4.7839Y-4.145
X4.784Y-3.135
X4.793Y-3.221
X4.7932Y-3.9575
X4.806Y-4.4707
X4.8176Y-4.0721
X4.8681Y-4.2682
X4.8763Y-3.6675
X4.8775Y-3.8475
X4.8875Y-3.7575
X4.9075Y-4.5283
X4.9212Y-3.565
X4.935Y-3.465
X4.9375Y-4.263
X4.948Y-3.361
X4.953Y-4.5717
X4.972Y-3.138
X4.972Y-4.4075
X4.973Y-3.231
X4.9775Y-3.7575
X4.9779Y-3.5618
X4.981Y-4.6404
X5.0134Y-4.7385
X5.0175Y-4.5221
X5.0375Y-3.7575
X5.042Y-3.366
X5.0634Y-3.5676
X5.067Y-4.051
X5.0876Y-3.4636
X5.0891Y-4.9066
X5.1023Y-3.5931
X5.108Y-3.231
X5.1196Y-4.0526
X5.141Y-3.37
X5.1712Y-4.0516
X5.2024Y-3.5987
X5.2038Y-4.0271
X5.2059Y-3.9613
X5.2409Y-3.4657
X5.283Y-4.9032
X5.2836Y-3.9634
X5.2848Y-3.5963
X5.2878Y-4.0222
X5.2892Y-3.9088
X5.292Y-3.8437
X5.2955Y-3.1696
X5.3389Y-3.4664
X5.3406Y-3.5969
X5.3862Y-5.5971
X5.4522Y-5.0508
X5.4678Y-4.9192
X5.4684Y-5.522
X5.574Y-5.5662
X5.5785Y-5.3082
X5.607Y-5.0098
X5.6201Y-4.811
X5.6385Y-4.473
X5.6993Y-4.856
X5.7113Y-5.0225
X5.7134Y-5.2192
X5.8046Y-5.5773
X5.8093Y-5.4761
X5.8198Y-5.2171
X5.82Y-2.394
X5.8865Y-5.5697
X5.9412Y-5.5636
X6.0025Y-3.9725
X6.0102Y-2.5648
X6.0144Y-5.6028
X6.0282Y-4.4798
X6.0483Y-2.7747
X6.1043Y-5.5917
X6.1313Y-5.5715
X6.1979Y-5.5697
X6.2811Y-5.0134
X6.2811Y-5.5575
X6.285Y-4.713
X6.287Y-4.173
X6.2889Y-5.52
X6.2915Y-5.4185
X6.2982Y-4.0199
X6.3094Y-2.1618
X6.3156Y-2.4588
X6.4116Y-3.9047
X6.4161Y-4.5247
X6.4161Y-5.544
X6.4169Y-4.6543
X6.4332Y-5.5755
X6.4778Y-2.3524
X6.5253Y-3.7953
X6.5264Y-5.5899
X6.5317Y-3.906
X6.5385Y-5.5566
X6.5471Y-4.1195
X6.5705Y-3.8556
X6.6704Y-5.5742
X6.6836Y-3.7737
X6.6839Y-3.8268
X6.6857Y-3.8759
X6.6881Y-5.5464
X6.7074Y-2.1644
X6.7164Y-3.2114
X6.7263Y-3.3419
X6.7276Y-3.4822
X6.7286Y-3.0822
X6.7305Y-2.0692
X6.7431Y-3.7758
X6.7445Y-3.6729
X6.7491Y-5.5467
X6.7564Y-2.1259
X6.7704Y-2.3448
X6.7797Y-1.8797
X6.7811Y-5.5485
X6.7851Y-3.879
X6.8067Y-5.5175
X6.807Y-2.379
X6.8175Y-1.9977
X6.8425Y-4.1209
X6.8635Y-3.6722
X6.8656Y-3.5749
X6.8973Y-2.0094
X6.9093Y-5.5598
X6.9291Y-5.5287
X6.9381Y-1.8797
X6.945Y-4.702
X6.9503Y-3.8763
X6.9507Y-2.1843
X6.9524Y-3.983
X6.9948Y-2.2334
X6.9966Y-2.3802
X7.0712Y-5.586
X7.0968Y-5.5514
X7.1698Y-4.6628
X7.1706Y-4.4934
X7.1745Y-4.3269
X7.1745Y-4.5923
X7.1748Y-4.3938
X7.2Y-3.985
X7.2288Y-5.5476
X7.235Y-4.278
X7.2369Y-5.598
X7.2504Y-2.6517
X7.381Y-2.799
X7.3905Y-2.6523
X7.3914Y-2.6859
X7.4601Y-3.1386
X7.52Y-2.2019
X7.6683Y-2.7639
X7.6788Y-4.0503
T2
X5.31Y-5.595
X5.625Y-5.605
T4
X4.5475Y-4.8675
X4.7475Y-4.8675
T5
X3.64Y-1.905
X3.64Y-2.01
X3.64Y-2.115
T6
X3.64Y-2.3
X3.64Y-2.4
X4.145Y-3.63
X4.295Y-3.63
X4.565Y-3.63
X4.715Y-3.63
T7
X3.78Y-2.975
X3.78Y-3.085
X3.78Y-3.19
X3.78Y-3.3
X3.88Y-2.92
X3.88Y-3.03
X3.88Y-3.14
X3.88Y-3.245
X3.88Y-3.355
X4.77Y-2.65
X4.77Y-2.75
X4.87Y-2.65
X4.87Y-2.75
X4.97Y-2.65
X4.97Y-2.75
X5.07Y-2.65
X5.07Y-2.75
X6.64Y-2.09
X6.64Y-2.19
X6.64Y-2.33
X6.64Y-2.43
X7.32Y-3.55
X7.32Y-3.65
X7.32Y-3.75
X7.32Y-3.85
X7.32Y-3.95
X7.32Y-4.05
X7.32Y-4.365
X7.32Y-4.465
X7.32Y-4.565
X7.32Y-4.665
X7.32Y-4.765
X7.32Y-4.865
X7.42Y-3.55
X7.42Y-3.65
X7.42Y-3.75
X7.42Y-3.85
X7.42Y-3.95
X7.42Y-4.05
X7.42Y-4.365
X7.42Y-4.465
X7.42Y-4.565
X7.42Y-4.665
X7.42Y-4.765
X7.42Y-4.865
T8
X5.2Y-1.378
X5.338Y-1.378
X5.48Y-1.378
X5.618Y-1.378
X5.817Y-1.378
X5.955Y-1.378
X6.093Y-1.378
X6.235Y-1.378
X6.373Y-1.378
X6.515Y-1.378
X6.653Y-1.378
X6.852Y-1.378
X6.99Y-1.378
X7.128Y-1.378
X7.27Y-1.378
X7.408Y-1.378
X7.55Y-1.378
X7.688Y-1.378
T9
X3.8194Y-2.6468
X3.8194Y-3.6203
T10
X3.7657Y-5.4733
T11
X4.9715Y-2.3086
X7.1725Y-1.9556
T3
X3.5247Y-3.9813G85X3.5247Y-4.0246
G05
X3.5247Y-4.3313G85X3.5247Y-4.3746
G05
X3.5247Y-4.6813G85X3.5247Y-4.7246
G05
X3.5247Y-5.0313G85X3.5247Y-5.0746
G05
X3.6232Y-3.9025G85X3.6232Y-3.9458
G05
X3.6232Y-4.2525G85X3.6232Y-4.2958
G05
X3.6232Y-4.6025G85X3.6232Y-4.6458
G05
X3.6232Y-4.9525G85X3.6232Y-4.9958
G05
X3.7688Y-3.9813G85X3.7688Y-4.0246
G05
X3.7688Y-4.3313G85X3.7688Y-4.3746
G05
X3.7688Y-4.6813G85X3.7688Y-4.7246
G05
X3.7688Y-5.0313G85X3.7688Y-5.0746
G05
X3.8436Y-3.9025G85X3.8436Y-3.9458
G05
X3.8436Y-4.2525G85X3.8436Y-4.2958
G05
X3.8436Y-4.6025G85X3.8436Y-4.6458
G05
X3.8436Y-4.9525G85X3.8436Y-4.9958
G05
X3.9893Y-3.9813G85X3.9893Y-4.0246
G05
X3.9893Y-4.3313G85X3.9893Y-4.3746
G05
X3.9893Y-4.6813G85X3.9893Y-4.7246
G05
X3.9893Y-5.0313G85X3.9893Y-5.0746
G05
T0
M30
