G04 (created by PCBNEW (2013-07-07 BZR 4022)-stable) date 16-12-2015 04:21:19 PM*
%MOIN*%
G04 Gerber Fmt 3.4, Leading zero omitted, Abs format*
%FSLAX34Y34*%
G01*
G70*
G90*
G04 APERTURE LIST*
%ADD10C,0.00590551*%
%ADD11C,0.01*%
%ADD12C,0.005*%
%ADD13C,0.0075*%
G04 APERTURE END LIST*
G54D10*
G54D11*
X37779Y-51836D02*
X37779Y-51436D01*
X37646Y-51722D01*
X37513Y-51436D01*
X37513Y-51836D01*
X37322Y-51836D02*
X37322Y-51436D01*
X36903Y-51798D02*
X36922Y-51817D01*
X36979Y-51836D01*
X37017Y-51836D01*
X37074Y-51817D01*
X37113Y-51779D01*
X37132Y-51741D01*
X37151Y-51665D01*
X37151Y-51608D01*
X37132Y-51532D01*
X37113Y-51494D01*
X37074Y-51455D01*
X37017Y-51436D01*
X36979Y-51436D01*
X36922Y-51455D01*
X36903Y-51475D01*
X37589Y-48336D02*
X37779Y-48336D01*
X37779Y-47936D01*
X37455Y-48336D02*
X37455Y-47936D01*
X37265Y-48336D02*
X37265Y-47936D01*
X37036Y-48336D01*
X37036Y-47936D01*
X36846Y-48127D02*
X36713Y-48127D01*
X36655Y-48336D02*
X36846Y-48336D01*
X36846Y-47936D01*
X36655Y-47936D01*
X36179Y-48336D02*
X36179Y-47936D01*
X35989Y-48336D02*
X35989Y-47936D01*
X35760Y-48336D01*
X35760Y-47936D01*
X37779Y-45036D02*
X37779Y-44636D01*
X37779Y-44827D02*
X37551Y-44827D01*
X37551Y-45036D02*
X37551Y-44636D01*
X37360Y-45036D02*
X37360Y-44636D01*
X37208Y-44636D01*
X37170Y-44655D01*
X37151Y-44675D01*
X37132Y-44713D01*
X37132Y-44770D01*
X37151Y-44808D01*
X37170Y-44827D01*
X37208Y-44846D01*
X37360Y-44846D01*
X36579Y-44636D02*
X36503Y-44636D01*
X36465Y-44655D01*
X36427Y-44694D01*
X36408Y-44770D01*
X36408Y-44903D01*
X36427Y-44979D01*
X36465Y-45017D01*
X36503Y-45036D01*
X36579Y-45036D01*
X36617Y-45017D01*
X36655Y-44979D01*
X36675Y-44903D01*
X36675Y-44770D01*
X36655Y-44694D01*
X36617Y-44655D01*
X36579Y-44636D01*
X36236Y-44636D02*
X36236Y-44960D01*
X36217Y-44998D01*
X36198Y-45017D01*
X36160Y-45036D01*
X36084Y-45036D01*
X36046Y-45017D01*
X36027Y-44998D01*
X36008Y-44960D01*
X36008Y-44636D01*
X35875Y-44636D02*
X35646Y-44636D01*
X35760Y-45036D02*
X35760Y-44636D01*
X37599Y-41496D02*
X37789Y-41496D01*
X37789Y-41096D01*
X37465Y-41496D02*
X37465Y-41096D01*
X37275Y-41496D02*
X37275Y-41096D01*
X37046Y-41496D01*
X37046Y-41096D01*
X36856Y-41287D02*
X36723Y-41287D01*
X36665Y-41496D02*
X36856Y-41496D01*
X36856Y-41096D01*
X36665Y-41096D01*
X36113Y-41096D02*
X36037Y-41096D01*
X35999Y-41115D01*
X35961Y-41154D01*
X35942Y-41230D01*
X35942Y-41363D01*
X35961Y-41439D01*
X35999Y-41477D01*
X36037Y-41496D01*
X36113Y-41496D01*
X36151Y-41477D01*
X36189Y-41439D01*
X36208Y-41363D01*
X36208Y-41230D01*
X36189Y-41154D01*
X36151Y-41115D01*
X36113Y-41096D01*
X35770Y-41096D02*
X35770Y-41420D01*
X35751Y-41458D01*
X35732Y-41477D01*
X35694Y-41496D01*
X35618Y-41496D01*
X35580Y-41477D01*
X35561Y-41458D01*
X35542Y-41420D01*
X35542Y-41096D01*
X35408Y-41096D02*
X35180Y-41096D01*
X35294Y-41496D02*
X35294Y-41096D01*
G54D12*
X41525Y-39225D02*
X41525Y-40125D01*
X41525Y-40125D02*
X42025Y-40125D01*
X42025Y-40125D02*
X42025Y-39225D01*
X42025Y-39225D02*
X41525Y-39225D01*
X45130Y-42435D02*
X44230Y-42435D01*
X44230Y-42435D02*
X44230Y-42935D01*
X44230Y-42935D02*
X45130Y-42935D01*
X45130Y-42935D02*
X45130Y-42435D01*
X42025Y-44125D02*
X42025Y-43225D01*
X42025Y-43225D02*
X41525Y-43225D01*
X41525Y-43225D02*
X41525Y-44125D01*
X41525Y-44125D02*
X42025Y-44125D01*
X41525Y-41925D02*
X41525Y-42825D01*
X41525Y-42825D02*
X42025Y-42825D01*
X42025Y-42825D02*
X42025Y-41925D01*
X42025Y-41925D02*
X41525Y-41925D01*
X42025Y-41425D02*
X42025Y-40525D01*
X42025Y-40525D02*
X41525Y-40525D01*
X41525Y-40525D02*
X41525Y-41425D01*
X41525Y-41425D02*
X42025Y-41425D01*
X44625Y-48425D02*
X43725Y-48425D01*
X43725Y-48425D02*
X43725Y-48925D01*
X43725Y-48925D02*
X44625Y-48925D01*
X44625Y-48925D02*
X44625Y-48425D01*
X42425Y-50825D02*
X41525Y-50825D01*
X41525Y-50825D02*
X41525Y-51325D01*
X41525Y-51325D02*
X42425Y-51325D01*
X42425Y-51325D02*
X42425Y-50825D01*
X41825Y-48225D02*
X40925Y-48225D01*
X40925Y-48225D02*
X40925Y-48725D01*
X40925Y-48725D02*
X41825Y-48725D01*
X41825Y-48725D02*
X41825Y-48225D01*
X41525Y-49525D02*
X42425Y-49525D01*
X42425Y-49525D02*
X42425Y-49025D01*
X42425Y-49025D02*
X41525Y-49025D01*
X41525Y-49025D02*
X41525Y-49525D01*
X41825Y-47425D02*
X40925Y-47425D01*
X40925Y-47425D02*
X40925Y-47925D01*
X40925Y-47925D02*
X41825Y-47925D01*
X41825Y-47925D02*
X41825Y-47425D01*
X41525Y-44725D02*
X41525Y-45625D01*
X41525Y-45625D02*
X42025Y-45625D01*
X42025Y-45625D02*
X42025Y-44725D01*
X42025Y-44725D02*
X41525Y-44725D01*
X42025Y-46825D02*
X42025Y-45925D01*
X42025Y-45925D02*
X41525Y-45925D01*
X41525Y-45925D02*
X41525Y-46825D01*
X41525Y-46825D02*
X42025Y-46825D01*
X46940Y-41541D02*
X46940Y-42441D01*
X46940Y-42441D02*
X47440Y-42441D01*
X47440Y-42441D02*
X47440Y-41541D01*
X47440Y-41541D02*
X46940Y-41541D01*
X47594Y-41542D02*
X47594Y-42442D01*
X47594Y-42442D02*
X48094Y-42442D01*
X48094Y-42442D02*
X48094Y-41542D01*
X48094Y-41542D02*
X47594Y-41542D01*
X46658Y-41425D02*
X46658Y-40525D01*
X46658Y-40525D02*
X46158Y-40525D01*
X46158Y-40525D02*
X46158Y-41425D01*
X46158Y-41425D02*
X46658Y-41425D01*
X47425Y-40625D02*
X48325Y-40625D01*
X48325Y-40625D02*
X48325Y-40125D01*
X48325Y-40125D02*
X47425Y-40125D01*
X47425Y-40125D02*
X47425Y-40625D01*
X48325Y-48925D02*
X49225Y-48925D01*
X49225Y-48925D02*
X49225Y-48425D01*
X49225Y-48425D02*
X48325Y-48425D01*
X48325Y-48425D02*
X48325Y-48925D01*
X48895Y-36075D02*
G75*
G03X48895Y-36075I-70J0D01*
G74*
G01*
X49475Y-37225D02*
X48875Y-37225D01*
X48875Y-37225D02*
X48875Y-36125D01*
X48875Y-36125D02*
X49475Y-36125D01*
X50075Y-36125D02*
X50675Y-36125D01*
X50675Y-36125D02*
X50675Y-37225D01*
X50675Y-37225D02*
X50075Y-37225D01*
X48895Y-37875D02*
G75*
G03X48895Y-37875I-70J0D01*
G74*
G01*
X49475Y-39025D02*
X48875Y-39025D01*
X48875Y-39025D02*
X48875Y-37925D01*
X48875Y-37925D02*
X49475Y-37925D01*
X50075Y-37925D02*
X50675Y-37925D01*
X50675Y-37925D02*
X50675Y-39025D01*
X50675Y-39025D02*
X50075Y-39025D01*
G54D13*
X41317Y-39482D02*
X41332Y-39467D01*
X41346Y-39425D01*
X41346Y-39396D01*
X41332Y-39353D01*
X41303Y-39325D01*
X41275Y-39310D01*
X41217Y-39296D01*
X41175Y-39296D01*
X41117Y-39310D01*
X41089Y-39325D01*
X41060Y-39353D01*
X41046Y-39396D01*
X41046Y-39425D01*
X41060Y-39467D01*
X41075Y-39482D01*
X41075Y-39596D02*
X41060Y-39610D01*
X41046Y-39639D01*
X41046Y-39710D01*
X41060Y-39739D01*
X41075Y-39753D01*
X41103Y-39767D01*
X41132Y-39767D01*
X41175Y-39753D01*
X41346Y-39582D01*
X41346Y-39767D01*
X41075Y-39882D02*
X41060Y-39896D01*
X41046Y-39925D01*
X41046Y-39996D01*
X41060Y-40025D01*
X41075Y-40039D01*
X41103Y-40053D01*
X41132Y-40053D01*
X41175Y-40039D01*
X41346Y-39867D01*
X41346Y-40053D01*
X44867Y-42217D02*
X44882Y-42232D01*
X44925Y-42246D01*
X44953Y-42246D01*
X44996Y-42232D01*
X45025Y-42203D01*
X45039Y-42175D01*
X45053Y-42117D01*
X45053Y-42075D01*
X45039Y-42017D01*
X45025Y-41989D01*
X44996Y-41960D01*
X44953Y-41946D01*
X44925Y-41946D01*
X44882Y-41960D01*
X44867Y-41975D01*
X44582Y-42246D02*
X44753Y-42246D01*
X44667Y-42246D02*
X44667Y-41946D01*
X44696Y-41989D01*
X44725Y-42017D01*
X44753Y-42032D01*
X44325Y-41946D02*
X44382Y-41946D01*
X44410Y-41960D01*
X44425Y-41975D01*
X44453Y-42017D01*
X44467Y-42075D01*
X44467Y-42189D01*
X44453Y-42217D01*
X44439Y-42232D01*
X44410Y-42246D01*
X44353Y-42246D01*
X44325Y-42232D01*
X44310Y-42217D01*
X44296Y-42189D01*
X44296Y-42117D01*
X44310Y-42089D01*
X44325Y-42075D01*
X44353Y-42060D01*
X44410Y-42060D01*
X44439Y-42075D01*
X44453Y-42089D01*
X44467Y-42117D01*
X41317Y-43482D02*
X41332Y-43467D01*
X41346Y-43425D01*
X41346Y-43396D01*
X41332Y-43353D01*
X41303Y-43325D01*
X41275Y-43310D01*
X41217Y-43296D01*
X41175Y-43296D01*
X41117Y-43310D01*
X41089Y-43325D01*
X41060Y-43353D01*
X41046Y-43396D01*
X41046Y-43425D01*
X41060Y-43467D01*
X41075Y-43482D01*
X41075Y-43596D02*
X41060Y-43610D01*
X41046Y-43639D01*
X41046Y-43710D01*
X41060Y-43739D01*
X41075Y-43753D01*
X41103Y-43767D01*
X41132Y-43767D01*
X41175Y-43753D01*
X41346Y-43582D01*
X41346Y-43767D01*
X41046Y-44025D02*
X41046Y-43967D01*
X41060Y-43939D01*
X41075Y-43925D01*
X41117Y-43896D01*
X41175Y-43882D01*
X41289Y-43882D01*
X41317Y-43896D01*
X41332Y-43910D01*
X41346Y-43939D01*
X41346Y-43996D01*
X41332Y-44025D01*
X41317Y-44039D01*
X41289Y-44053D01*
X41217Y-44053D01*
X41189Y-44039D01*
X41175Y-44025D01*
X41160Y-43996D01*
X41160Y-43939D01*
X41175Y-43910D01*
X41189Y-43896D01*
X41217Y-43882D01*
X41317Y-42182D02*
X41332Y-42167D01*
X41346Y-42125D01*
X41346Y-42096D01*
X41332Y-42053D01*
X41303Y-42025D01*
X41275Y-42010D01*
X41217Y-41996D01*
X41175Y-41996D01*
X41117Y-42010D01*
X41089Y-42025D01*
X41060Y-42053D01*
X41046Y-42096D01*
X41046Y-42125D01*
X41060Y-42167D01*
X41075Y-42182D01*
X41075Y-42296D02*
X41060Y-42310D01*
X41046Y-42339D01*
X41046Y-42410D01*
X41060Y-42439D01*
X41075Y-42453D01*
X41103Y-42467D01*
X41132Y-42467D01*
X41175Y-42453D01*
X41346Y-42282D01*
X41346Y-42467D01*
X41346Y-42753D02*
X41346Y-42582D01*
X41346Y-42667D02*
X41046Y-42667D01*
X41089Y-42639D01*
X41117Y-42610D01*
X41132Y-42582D01*
X41317Y-40782D02*
X41332Y-40767D01*
X41346Y-40725D01*
X41346Y-40696D01*
X41332Y-40653D01*
X41303Y-40625D01*
X41275Y-40610D01*
X41217Y-40596D01*
X41175Y-40596D01*
X41117Y-40610D01*
X41089Y-40625D01*
X41060Y-40653D01*
X41046Y-40696D01*
X41046Y-40725D01*
X41060Y-40767D01*
X41075Y-40782D01*
X41075Y-40896D02*
X41060Y-40910D01*
X41046Y-40939D01*
X41046Y-41010D01*
X41060Y-41039D01*
X41075Y-41053D01*
X41103Y-41067D01*
X41132Y-41067D01*
X41175Y-41053D01*
X41346Y-40882D01*
X41346Y-41067D01*
X41046Y-41167D02*
X41046Y-41367D01*
X41346Y-41239D01*
X44367Y-48167D02*
X44382Y-48182D01*
X44425Y-48196D01*
X44453Y-48196D01*
X44496Y-48182D01*
X44525Y-48153D01*
X44539Y-48125D01*
X44553Y-48067D01*
X44553Y-48025D01*
X44539Y-47967D01*
X44525Y-47939D01*
X44496Y-47910D01*
X44453Y-47896D01*
X44425Y-47896D01*
X44382Y-47910D01*
X44367Y-47925D01*
X44253Y-47925D02*
X44239Y-47910D01*
X44210Y-47896D01*
X44139Y-47896D01*
X44110Y-47910D01*
X44096Y-47925D01*
X44082Y-47953D01*
X44082Y-47982D01*
X44096Y-48025D01*
X44267Y-48196D01*
X44082Y-48196D01*
X43982Y-47896D02*
X43796Y-47896D01*
X43896Y-48010D01*
X43853Y-48010D01*
X43825Y-48025D01*
X43810Y-48039D01*
X43796Y-48067D01*
X43796Y-48139D01*
X43810Y-48167D01*
X43825Y-48182D01*
X43853Y-48196D01*
X43939Y-48196D01*
X43967Y-48182D01*
X43982Y-48167D01*
X42875Y-51196D02*
X42975Y-51053D01*
X43046Y-51196D02*
X43046Y-50896D01*
X42932Y-50896D01*
X42903Y-50910D01*
X42889Y-50925D01*
X42875Y-50953D01*
X42875Y-50996D01*
X42889Y-51025D01*
X42903Y-51039D01*
X42932Y-51053D01*
X43046Y-51053D01*
X42617Y-50996D02*
X42617Y-51196D01*
X42689Y-50882D02*
X42760Y-51096D01*
X42575Y-51096D01*
X42275Y-48596D02*
X42375Y-48453D01*
X42446Y-48596D02*
X42446Y-48296D01*
X42332Y-48296D01*
X42303Y-48310D01*
X42289Y-48325D01*
X42275Y-48353D01*
X42275Y-48396D01*
X42289Y-48425D01*
X42303Y-48439D01*
X42332Y-48453D01*
X42446Y-48453D01*
X42103Y-48425D02*
X42132Y-48410D01*
X42146Y-48396D01*
X42160Y-48367D01*
X42160Y-48353D01*
X42146Y-48325D01*
X42132Y-48310D01*
X42103Y-48296D01*
X42046Y-48296D01*
X42017Y-48310D01*
X42003Y-48325D01*
X41989Y-48353D01*
X41989Y-48367D01*
X42003Y-48396D01*
X42017Y-48410D01*
X42046Y-48425D01*
X42103Y-48425D01*
X42132Y-48439D01*
X42146Y-48453D01*
X42160Y-48482D01*
X42160Y-48539D01*
X42146Y-48567D01*
X42132Y-48582D01*
X42103Y-48596D01*
X42046Y-48596D01*
X42017Y-48582D01*
X42003Y-48567D01*
X41989Y-48539D01*
X41989Y-48482D01*
X42003Y-48453D01*
X42017Y-48439D01*
X42046Y-48425D01*
X42875Y-49367D02*
X42889Y-49382D01*
X42932Y-49396D01*
X42960Y-49396D01*
X43003Y-49382D01*
X43032Y-49353D01*
X43046Y-49325D01*
X43060Y-49267D01*
X43060Y-49225D01*
X43046Y-49167D01*
X43032Y-49139D01*
X43003Y-49110D01*
X42960Y-49096D01*
X42932Y-49096D01*
X42889Y-49110D01*
X42875Y-49125D01*
X42617Y-49196D02*
X42617Y-49396D01*
X42689Y-49082D02*
X42760Y-49296D01*
X42575Y-49296D01*
X42275Y-47767D02*
X42289Y-47782D01*
X42332Y-47796D01*
X42360Y-47796D01*
X42403Y-47782D01*
X42432Y-47753D01*
X42446Y-47725D01*
X42460Y-47667D01*
X42460Y-47625D01*
X42446Y-47567D01*
X42432Y-47539D01*
X42403Y-47510D01*
X42360Y-47496D01*
X42332Y-47496D01*
X42289Y-47510D01*
X42275Y-47525D01*
X42017Y-47496D02*
X42075Y-47496D01*
X42103Y-47510D01*
X42117Y-47525D01*
X42146Y-47567D01*
X42160Y-47625D01*
X42160Y-47739D01*
X42146Y-47767D01*
X42132Y-47782D01*
X42103Y-47796D01*
X42046Y-47796D01*
X42017Y-47782D01*
X42003Y-47767D01*
X41989Y-47739D01*
X41989Y-47667D01*
X42003Y-47639D01*
X42017Y-47625D01*
X42046Y-47610D01*
X42103Y-47610D01*
X42132Y-47625D01*
X42146Y-47639D01*
X42160Y-47667D01*
X41317Y-45125D02*
X41332Y-45110D01*
X41346Y-45067D01*
X41346Y-45039D01*
X41332Y-44996D01*
X41303Y-44967D01*
X41275Y-44953D01*
X41217Y-44939D01*
X41175Y-44939D01*
X41117Y-44953D01*
X41089Y-44967D01*
X41060Y-44996D01*
X41046Y-45039D01*
X41046Y-45067D01*
X41060Y-45110D01*
X41075Y-45125D01*
X41046Y-45225D02*
X41046Y-45410D01*
X41160Y-45310D01*
X41160Y-45353D01*
X41175Y-45382D01*
X41189Y-45396D01*
X41217Y-45410D01*
X41289Y-45410D01*
X41317Y-45396D01*
X41332Y-45382D01*
X41346Y-45353D01*
X41346Y-45267D01*
X41332Y-45239D01*
X41317Y-45225D01*
X41317Y-46325D02*
X41332Y-46310D01*
X41346Y-46267D01*
X41346Y-46239D01*
X41332Y-46196D01*
X41303Y-46167D01*
X41275Y-46153D01*
X41217Y-46139D01*
X41175Y-46139D01*
X41117Y-46153D01*
X41089Y-46167D01*
X41060Y-46196D01*
X41046Y-46239D01*
X41046Y-46267D01*
X41060Y-46310D01*
X41075Y-46325D01*
X41075Y-46439D02*
X41060Y-46453D01*
X41046Y-46482D01*
X41046Y-46553D01*
X41060Y-46582D01*
X41075Y-46596D01*
X41103Y-46610D01*
X41132Y-46610D01*
X41175Y-46596D01*
X41346Y-46425D01*
X41346Y-46610D01*
X46667Y-41782D02*
X46682Y-41767D01*
X46696Y-41725D01*
X46696Y-41696D01*
X46682Y-41653D01*
X46653Y-41625D01*
X46625Y-41610D01*
X46567Y-41596D01*
X46525Y-41596D01*
X46467Y-41610D01*
X46439Y-41625D01*
X46410Y-41653D01*
X46396Y-41696D01*
X46396Y-41725D01*
X46410Y-41767D01*
X46425Y-41782D01*
X46696Y-42067D02*
X46696Y-41896D01*
X46696Y-41982D02*
X46396Y-41982D01*
X46439Y-41953D01*
X46467Y-41925D01*
X46482Y-41896D01*
X46425Y-42182D02*
X46410Y-42196D01*
X46396Y-42225D01*
X46396Y-42296D01*
X46410Y-42325D01*
X46425Y-42339D01*
X46453Y-42353D01*
X46482Y-42353D01*
X46525Y-42339D01*
X46696Y-42167D01*
X46696Y-42353D01*
X47917Y-42782D02*
X47932Y-42767D01*
X47946Y-42725D01*
X47946Y-42696D01*
X47932Y-42653D01*
X47903Y-42625D01*
X47875Y-42610D01*
X47817Y-42596D01*
X47775Y-42596D01*
X47717Y-42610D01*
X47689Y-42625D01*
X47660Y-42653D01*
X47646Y-42696D01*
X47646Y-42725D01*
X47660Y-42767D01*
X47675Y-42782D01*
X47946Y-43067D02*
X47946Y-42896D01*
X47946Y-42982D02*
X47646Y-42982D01*
X47689Y-42953D01*
X47717Y-42925D01*
X47732Y-42896D01*
X47946Y-43353D02*
X47946Y-43182D01*
X47946Y-43267D02*
X47646Y-43267D01*
X47689Y-43239D01*
X47717Y-43210D01*
X47732Y-43182D01*
X45911Y-40773D02*
X45768Y-40673D01*
X45911Y-40601D02*
X45611Y-40601D01*
X45611Y-40716D01*
X45625Y-40744D01*
X45640Y-40758D01*
X45668Y-40773D01*
X45711Y-40773D01*
X45740Y-40758D01*
X45754Y-40744D01*
X45768Y-40716D01*
X45768Y-40601D01*
X45911Y-41058D02*
X45911Y-40887D01*
X45911Y-40973D02*
X45611Y-40973D01*
X45654Y-40944D01*
X45682Y-40916D01*
X45697Y-40887D01*
X45711Y-41316D02*
X45911Y-41316D01*
X45597Y-41244D02*
X45811Y-41173D01*
X45811Y-41358D01*
X49117Y-40467D02*
X49132Y-40482D01*
X49175Y-40496D01*
X49203Y-40496D01*
X49246Y-40482D01*
X49275Y-40453D01*
X49289Y-40425D01*
X49303Y-40367D01*
X49303Y-40325D01*
X49289Y-40267D01*
X49275Y-40239D01*
X49246Y-40210D01*
X49203Y-40196D01*
X49175Y-40196D01*
X49132Y-40210D01*
X49117Y-40225D01*
X48832Y-40496D02*
X49003Y-40496D01*
X48917Y-40496D02*
X48917Y-40196D01*
X48946Y-40239D01*
X48975Y-40267D01*
X49003Y-40282D01*
X48575Y-40296D02*
X48575Y-40496D01*
X48646Y-40182D02*
X48717Y-40396D01*
X48532Y-40396D01*
X48967Y-48167D02*
X48982Y-48182D01*
X49025Y-48196D01*
X49053Y-48196D01*
X49096Y-48182D01*
X49125Y-48153D01*
X49139Y-48125D01*
X49153Y-48067D01*
X49153Y-48025D01*
X49139Y-47967D01*
X49125Y-47939D01*
X49096Y-47910D01*
X49053Y-47896D01*
X49025Y-47896D01*
X48982Y-47910D01*
X48967Y-47925D01*
X48682Y-48196D02*
X48853Y-48196D01*
X48767Y-48196D02*
X48767Y-47896D01*
X48796Y-47939D01*
X48825Y-47967D01*
X48853Y-47982D01*
X48539Y-48196D02*
X48482Y-48196D01*
X48453Y-48182D01*
X48439Y-48167D01*
X48410Y-48125D01*
X48396Y-48067D01*
X48396Y-47953D01*
X48410Y-47925D01*
X48425Y-47910D01*
X48453Y-47896D01*
X48510Y-47896D01*
X48539Y-47910D01*
X48553Y-47925D01*
X48567Y-47953D01*
X48567Y-48025D01*
X48553Y-48053D01*
X48539Y-48067D01*
X48510Y-48082D01*
X48453Y-48082D01*
X48425Y-48067D01*
X48410Y-48053D01*
X48396Y-48025D01*
X51467Y-36767D02*
X51482Y-36782D01*
X51525Y-36796D01*
X51553Y-36796D01*
X51596Y-36782D01*
X51625Y-36753D01*
X51639Y-36725D01*
X51653Y-36667D01*
X51653Y-36625D01*
X51639Y-36567D01*
X51625Y-36539D01*
X51596Y-36510D01*
X51553Y-36496D01*
X51525Y-36496D01*
X51482Y-36510D01*
X51467Y-36525D01*
X51182Y-36796D02*
X51353Y-36796D01*
X51267Y-36796D02*
X51267Y-36496D01*
X51296Y-36539D01*
X51325Y-36567D01*
X51353Y-36582D01*
X50996Y-36496D02*
X50967Y-36496D01*
X50939Y-36510D01*
X50925Y-36525D01*
X50910Y-36553D01*
X50896Y-36610D01*
X50896Y-36682D01*
X50910Y-36739D01*
X50925Y-36767D01*
X50939Y-36782D01*
X50967Y-36796D01*
X50996Y-36796D01*
X51025Y-36782D01*
X51039Y-36767D01*
X51053Y-36739D01*
X51067Y-36682D01*
X51067Y-36610D01*
X51053Y-36553D01*
X51039Y-36525D01*
X51025Y-36510D01*
X50996Y-36496D01*
X51467Y-38567D02*
X51482Y-38582D01*
X51525Y-38596D01*
X51553Y-38596D01*
X51596Y-38582D01*
X51625Y-38553D01*
X51639Y-38525D01*
X51653Y-38467D01*
X51653Y-38425D01*
X51639Y-38367D01*
X51625Y-38339D01*
X51596Y-38310D01*
X51553Y-38296D01*
X51525Y-38296D01*
X51482Y-38310D01*
X51467Y-38325D01*
X51182Y-38596D02*
X51353Y-38596D01*
X51267Y-38596D02*
X51267Y-38296D01*
X51296Y-38339D01*
X51325Y-38367D01*
X51353Y-38382D01*
X51082Y-38296D02*
X50882Y-38296D01*
X51010Y-38596D01*
M02*
